<?xml version="1.0" encoding="UTF-8"?><!DOCTYPE svg PUBLIC "-//W3C//DTD SVG 1.1//EN" "http://www.w3.org/Graphics/SVG/1.1/DTD/svg11.dtd"><svg version="1.1" width="128" height="128" viewBox="0 0 150.369 150.369" xmlns="http://www.w3.org/2000/svg"><g fill="#010002"><path d="m75.185 150.37c-41.455 0-75.181-33.729-75.181-75.188 0-41.455 33.725-75.181 75.181-75.181s75.181 33.726 75.181 75.181c0 41.459-33.726 75.188-75.181 75.188zm0-142.77c-37.264 0-67.577 30.314-67.577 67.577 0 37.267 30.314 67.585 67.577 67.585s67.577-30.317 67.577-67.585c0-37.263-30.314-67.577-67.577-67.577z"/><path d="m72.994 124.11c-8.743 0-14.613-2.328-14.761-2.391l2.896-7.032c1.292 0.52 31.888 12.333 55.972-28.153l6.534 3.883c-16.726 28.124-37.119 33.693-50.641 33.693z"/><circle cx="44.785" cy="57.271" r="5.354"/><path d="M70.596,75.352H18.975V39.198h51.621V75.352z M26.579,67.748h36.414V46.802H26.579V67.748z"/><circle cx="103.08" cy="57.271" r="5.35"/><path d="M128.892,75.352H77.271V39.198h51.621V75.352z M84.875,67.748h36.414V46.802H84.875V67.748z"/><rect x="67.425" y="53.469" width="13.677" height="7.603"/></g></svg>